<?xml version="1.0" standalone="no"?><!DOCTYPE svg PUBLIC "-//W3C//DTD SVG 1.1//EN" "http://www.w3.org/Graphics/SVG/1.1/DTD/svg11.dtd"><svg t="1715249595377" class="icon" viewBox="0 0 1024 1024" version="1.1" xmlns="http://www.w3.org/2000/svg" p-id="37843" xmlns:xlink="http://www.w3.org/1999/xlink" width="24" height="24"><path d="M890.453333 225.28l-320 347.733333a21.333333 21.333333 0 0 1-30.72 0l-89.173333-89.173333a21.333333 21.333333 0 0 1 0-30.72l347.733333-320a21.333333 21.333333 0 0 1 29.44 0l61.44 61.44a21.333333 21.333333 0 0 1 1.28 30.72z m-391.68 412.16l-111.36-111.786667a46.506667 46.506667 0 0 0-25.173333-13.653333A166.826667 166.826667 0 0 0 341.333333 512a170.666667 170.666667 0 0 0-120.746666 49.92c-85.333333 85.333333-20.053333 178.773333-89.173334 281.6a21.333333 21.333333 0 0 0 2.56 26.88 123.733333 123.733333 0 0 0 75.946667 25.6 331.093333 331.093333 0 0 0 252.16-92.16A170.666667 170.666667 0 0 0 512 682.666667v-20.906667a42.666667 42.666667 0 0 0-13.226667-24.32z" p-id="37844" ></path></svg>