<?xml version="1.0" standalone="no"?><!DOCTYPE svg PUBLIC "-//W3C//DTD SVG 1.1//EN" "http://www.w3.org/Graphics/SVG/1.1/DTD/svg11.dtd"><svg t="1715250717835" class="icon" viewBox="0 0 2254 1024" version="1.1" xmlns="http://www.w3.org/2000/svg" p-id="39281" xmlns:xlink="http://www.w3.org/1999/xlink" width="52.828125" height="24"><path d="M0.85504 651.264c1.1264-12.288 2.2528-23.552 3.8912-34.816s2.9696-23.552 4.608-34.816c3.6864-23.552 7.4752-46.08 11.8784-68.608A1392.64 1392.64 0 0 1 55.12704 376.832a1015.3984 1015.3984 0 0 1 50.4832-131.072 616.7552 616.7552 0 0 1 74.4448-121.856c7.4752-9.216 15.4624-18.432 23.6544-27.648A333.4144 333.4144 0 0 1 230.23104 71.68a354.7136 354.7136 0 0 1 28.9792-23.552c10.24-7.168 20.48-13.312 31.3344-19.456L298.83904 24.576 307.44064 20.48a104.1408 104.1408 0 0 1 17.1008-7.168l17.6128-6.144 9.1136-3.072 4.4032-1.024 5.7344-1.024 5.8368-1.024A12.5952 12.5952 0 0 0 373.28384 0h12.3904l6.3488 1.024c2.2528 0 4.1984 1.024 6.0416 1.024s4.1984 1.024 6.144 2.048l5.7344 2.048a104.5504 104.5504 0 0 1 37.7856 26.624 204.8 204.8 0 0 1 23.6544 33.792 321.4336 321.4336 0 0 1 16.5888 33.792c9.4208 23.552 16.5888 47.104 23.1424 69.632 12.6976 46.08 21.8112 91.136 30.72 137.216s16.2816 91.136 24.576 136.192 16.7936 90.112 27.2384 134.144c5.2224 21.504 11.0592 43.008 17.6128 63.488a372.6336 372.6336 0 0 0 23.4496 57.344 243.8144 243.8144 0 0 0 14.6432 22.528 67.4816 67.4816 0 0 0 14.6432 13.312 26.2144 26.2144 0 0 0 11.776 3.072h3.8912a15.9744 15.9744 0 0 1 2.2528-1.024h2.1504c1.3312 0 3.072-1.024 4.4032-1.024a10.24 10.24 0 0 0 4.7104-2.048 125.952 125.952 0 0 0 40.96-29.696 379.4944 379.4944 0 0 0 39.936-47.104c25.7024-34.816 49.3568-72.704 73.3184-111.616s47.7184-77.824 73.1136-117.76a1105.92 1105.92 0 0 1 84.0704-115.712 371.5072 371.5072 0 0 1 24.7808-28.672c8.8064-8.192 17.7152-17.408 27.3408-26.624 4.7104-4.096 9.6256-8.192 14.6432-12.288a73.6256 73.6256 0 0 1 15.6672-12.288 227.0208 227.0208 0 0 1 34.5088-22.528 235.52 235.52 0 0 1 39.3216-18.432 294.2976 294.2976 0 0 1 43.8272-10.24 170.496 170.496 0 0 1 22.9376-1.024h22.528l11.3664 2.048h5.7344l5.8368 1.024a225.28 225.28 0 0 1 23.4496 7.168 163.2256 163.2256 0 0 1 44.8512 22.528 212.5824 212.5824 0 0 1 36.1472 34.816 262.9632 262.9632 0 0 1 24.576 39.936 279.6544 279.6544 0 0 1 15.6672 40.96 450.56 450.56 0 0 1 16.5888 77.824c3.2768 25.6 5.2224 50.176 6.3488 74.752 1.8432 48.128 1.3312 95.232 0 142.336s-2.4576 91.136-1.9456 135.168c0.6144 21.504 1.1264 43.008 3.3792 62.464 0.8192 10.24 2.4576 19.456 4.096 28.672a176.4352 176.4352 0 0 0 6.0416 22.528 29.0816 29.0816 0 0 0 6.3488 12.288c0 1.024 0.6144 1.024 0.8192 1.024h-0.8192v-1.024s0 1.024 0 0h6.5536a6.144 6.144 0 0 1 4.096-1.024 6.8608 6.8608 0 0 0 4.4032-1.024h1.7408l2.4576-1.024c6.3488-2.048 13.824-5.12 20.48-8.192a135.3728 135.3728 0 0 0 22.8352-12.288 438.5792 438.5792 0 0 0 47.104-33.792 1045.6064 1045.6064 0 0 0 90.7264-88.064c29.2864-32.768 57.344-66.56 84.6848-101.376s53.9648-70.656 79.872-106.496c52.1216-72.704 101.7856-148.48 149.4016-225.28 24.064-37.888 47.7184-76.8 70.8608-115.712q17.408-29.184 34.2016-58.368c11.3664-19.456 22.6304-38.912 33.3824-58.368A74.752 74.752 0 0 1 2214.74304 44.032a77.824 77.824 0 0 1 28.4672 105.472c-11.5712 20.48-23.1424 40.96-34.7136 60.416l-35.6352 60.416c-23.9616 39.936-48.5376 78.848-73.3184 118.784-50.176 77.824-102.4 154.624-157.3888 230.4-27.5456 37.888-55.9104 74.752-85.7088 111.616s-60.7232 72.704-93.4912 107.52a1063.424 1063.424 0 0 1-107.52 100.352 544.256 544.256 0 0 1-64.2048 44.032 352.1536 352.1536 0 0 1-37.1712 19.456 267.0592 267.0592 0 0 1-42.8032 15.36l-5.7344 1.024a13.0048 13.0048 0 0 1-6.144 1.024 49.7664 49.7664 0 0 1-12.0832 2.048c-4.096 1.024-8.6016 1.024-12.6976 2.048h-21.1968l-7.7824-1.024h-7.68c-2.4576-1.024-5.2224-1.024-7.9872-2.048a99.1232 99.1232 0 0 1-15.9744-4.096 92.16 92.16 0 0 1-15.9744-6.144 88.064 88.064 0 0 1-15.1552-9.216 83.2512 83.2512 0 0 1-13.824-10.24c-4.096-4.096-8.4992-8.192-11.8784-12.288a130.6624 130.6624 0 0 1-10.24-12.288 186.2656 186.2656 0 0 1-24.4736-49.152 305.3568 305.3568 0 0 1-10.752-44.032 483.328 483.328 0 0 1-5.0176-39.936 796.672 796.672 0 0 1-1.9456-75.776c0.9216-48.128 3.8912-95.232 6.656-140.288s5.0176-91.136 4.7104-134.144c0-21.504-0.8192-43.008-2.7648-63.488a327.68 327.68 0 0 0-10.24-57.344 186.9824 186.9824 0 0 0-8.2944-24.576 117.0432 117.0432 0 0 0-10.24-18.432 48.64 48.64 0 0 0-12.0832-13.312 73.216 73.216 0 0 0-14.9504-9.216c-2.9696-1.024-5.7344-2.048-9.3184-3.072h-2.56c-0.8192 0-1.6384-1.024-2.4576-1.024a10.24 10.24 0 0 1-5.5296-1.024h-22.528a87.1424 87.1424 0 0 0-22.3232 4.096l-22.9376 9.216c-7.68 4.096-15.4624 9.216-23.1424 14.336a80.2816 80.2816 0 0 0-11.5712 8.192c-3.8912 3.072-7.7824 6.144-11.3664 9.216-7.3728 6.144-14.848 13.312-22.3232 20.48s-14.336 15.36-21.504 23.552a999.2192 999.2192 0 0 0-79.872 103.424c-25.7024 36.864-50.4832 74.752-76.0832 112.64s-51.8144 77.824-81.92 115.712a536.1664 536.1664 0 0 1-50.4832 55.296 271.1552 271.1552 0 0 1-31.4368 25.6 198.144 198.144 0 0 1-39.424 20.48 128.2048 128.2048 0 0 1-49.3568 8.192 84.8896 84.8896 0 0 1-27.3408-5.12c-4.4032-2.048-8.8064-3.072-12.9024-5.12a51.9168 51.9168 0 0 1-11.5712-7.168 135.5776 135.5776 0 0 1-34.7136-32.768 320.512 320.512 0 0 1-21.8112-35.84 481.28 481.28 0 0 1-26.7264-71.68 843.5712 843.5712 0 0 1-17.408-69.632c-9.6256-47.104-17.1008-93.184-23.9616-138.24s-13.2096-92.16-20.48-137.216-14.6432-89.088-25.088-133.12a601.9072 601.9072 0 0 0-18.5344-62.464 211.7632 211.7632 0 0 0-12.3904-27.648 144.896 144.896 0 0 0-14.848-23.552 67.4816 67.4816 0 0 0-16.2816-13.312 33.5872 33.5872 0 0 0-17.92-2.048l-2.7648 1.024h-3.584l-7.4752 2.048c-4.9152 2.048-9.6256 3.072-14.5408 5.12a77.5168 77.5168 0 0 0-14.336 5.12l-7.168 3.072-6.9632 4.096A284.8768 284.8768 0 0 0 285.52704 92.16c-8.4992 6.144-16.9984 12.288-25.2928 19.456a295.6288 295.6288 0 0 0-23.7568 20.48c-7.3728 8.192-14.848 15.36-22.016 23.552a551.3216 551.3216 0 0 0-72.4992 110.592 867.5328 867.5328 0 0 0-52.6336 123.904 1249.28 1249.28 0 0 0-37.7856 130.048 1744.896 1744.896 0 0 0-20.3776 100.352c-1.8432 11.264-3.584 22.528-5.0176 33.792a13.7216 13.7216 0 0 1-15.4624 12.288 14.7456 14.7456 0 0 1-11.264-15.36z" fill="#666666" p-id="39282"></path></svg>