<?xml version="1.0" standalone="no"?><!DOCTYPE svg PUBLIC "-//W3C//DTD SVG 1.1//EN" "http://www.w3.org/Graphics/SVG/1.1/DTD/svg11.dtd"><svg t="1715011476403" class="icon" viewBox="0 0 1024 1024" version="1.1" xmlns="http://www.w3.org/2000/svg" p-id="20703" xmlns:xlink="http://www.w3.org/1999/xlink" width="24" height="24"><path d="M381.155556 327.111111m-327.111112 0a327.111111 327.111111 0 1 0 654.222223 0 327.111111 327.111111 0 1 0-654.222223 0Z" fill="#8CF6FB" p-id="20704"></path><path d="M493.511111 785.066667l-45.511111 45.511111-1.422222-1.422222c-8.533333 4.266667-17.066667 5.688889-25.6 5.688888l-265.955556 42.666667c-15.644444 0-29.866667-5.688889-41.244444-17.066667v-1.422222c-11.377778-11.377778-17.066667-25.6-15.644445-41.244444l48.355556-257.422222c0-8.533333 1.422222-18.488889 2.844444-27.022223l-2.844444-2.844444 49.777778-49.777778L654.222222 22.755556c21.333333-22.755556 56.888889-22.755556 79.644445-1.422223L950.044444 237.511111c21.333333 22.755556 25.6 62.577778 4.266667 85.333333L493.511111 785.066667zM169.244444 806.4l216.177778-35.555556L210.488889 594.488889 169.244444 806.4z m722.488889-527.644444L694.044444 82.488889 246.044444 530.488889l200.533334 200.533333L894.577778 284.444444l-2.844445-5.688888z" fill="#3C2DCB" p-id="20705"></path><path d="M900.266667 1024h-696.888889C183.466667 1024 167.822222 1008.355556 167.822222 988.444444S183.466667 952.888889 203.377778 952.888889h696.888889c19.911111 0 35.555556 15.644444 35.555555 35.555555S920.177778 1024 900.266667 1024z" fill="#D098FF" p-id="20706"></path></svg>