<?xml version="1.0" standalone="no"?><!DOCTYPE svg PUBLIC "-//W3C//DTD SVG 1.1//EN" "http://www.w3.org/Graphics/SVG/1.1/DTD/svg11.dtd"><svg t="1715249154580" class="icon" viewBox="0 0 1024 1024" version="1.1" xmlns="http://www.w3.org/2000/svg" p-id="36835" xmlns:xlink="http://www.w3.org/1999/xlink" width="24" height="24"><path d="M704 320 231.552 320l141.504-141.376c12.032-11.968 12.032-31.36 0-43.328-12.032-12.032-31.424-12.032-43.456 0L135.296 329.344c-12.032 11.968-12.032 31.36 0 43.392L329.6 566.784c12.032 11.968 31.424 11.968 43.456 0 12.032-12.032 12.032-31.36 0-43.392L233.408 384 704 384c106.048 0 192 85.952 192 192s-85.952 192-192 192L288 768C270.336 768 256 782.336 256 800S270.336 832 288 832L704 832c141.376 0 256-114.624 256-256S845.376 320 704 320z" p-id="36836"></path></svg>