<?xml version="1.0" standalone="no"?><!DOCTYPE svg PUBLIC "-//W3C//DTD SVG 1.1//EN" "http://www.w3.org/Graphics/SVG/1.1/DTD/svg11.dtd"><svg t="1715011576982" class="icon" viewBox="0 0 1024 1024" version="1.1" xmlns="http://www.w3.org/2000/svg" p-id="31541" xmlns:xlink="http://www.w3.org/1999/xlink" width="24" height="24"><path d="M78.467433 823.908046V196.168582c0-66.697318 51.003831-117.701149 117.701149-117.701149h627.739464c66.697318 0 117.701149 51.003831 117.701149 117.701149v105.931035c0 23.54023 15.693487 39.233716 39.233717 39.233716s39.233716-15.693487 39.233716-39.233716V156.934866c0-86.314176-70.62069-156.934866-156.934866-156.934866H156.934866C70.62069 0 0 70.62069 0 156.934866v706.206896c0 86.314176 70.62069 156.934866 156.934866 156.934866h145.164751c23.54023 0 39.233716-15.693487 39.233716-39.233716s-15.693487-39.233716-39.233716-39.233717H196.168582c-66.697318 0-117.701149-51.003831-117.701149-117.701149z" fill="#5060B5" p-id="31542"></path><path d="M674.819923 757.210728c19.616858 0 35.310345 15.693487 35.310345 35.310345s-15.693487 35.310345-35.310345 35.310345-35.310345-15.693487-35.310344-35.310345 15.693487-35.310345 35.310344-35.310345m0-78.467433c-62.773946 0-113.777778 51.003831-113.777777 113.777778 0 62.773946 51.003831 113.777778 113.777777 113.777778 62.773946 0 113.777778-51.003831 113.777778-113.777778 0-62.773946-51.003831-113.777778-113.777778-113.777778z" fill="#FC8739" p-id="31543"></path><path d="M831.754789 490.421456c3.923372 0 3.923372 0 7.846744 3.923372" fill="#F15A24" p-id="31544"></path><path d="M231.478927 302.099617l109.854406-109.854406c15.693487-15.693487 39.233716-15.693487 54.927203 0 15.693487 15.693487 15.693487 39.233716 0 54.927203L286.40613 357.02682c-15.693487 15.693487-39.233716 15.693487-54.927203 0-15.693487-15.693487-15.693487-39.233716 0-54.927203z" fill="#5060B5" p-id="31545"></path><path d="M231.478927 357.02682l109.854406 109.854406c15.693487 15.693487 39.233716 15.693487 54.927203 0 15.693487-15.693487 15.693487-39.233716 0-54.927203L286.40613 302.099617c-15.693487-15.693487-39.233716-15.693487-54.927203 0-15.693487 11.770115-15.693487 39.233716 0 54.927203zM282.482759 690.51341c0-47.08046 35.310345-82.390805 82.390804-82.390805h274.636016v-78.467433h-274.636016c-90.237548 0-160.858238 70.62069-160.858237 160.858238s70.62069 160.858238 160.858237 160.858238h39.233717v-78.467433h-39.233717c-43.157088 0-82.390805-35.310345-82.390804-82.390805z" fill="#5060B5" p-id="31546"></path><path d="M655.203065 286.40613H294.252874v78.467433h360.950191c47.08046 0 82.390805 35.310345 82.390805 82.390805s-35.310345 82.390805-82.390805 82.390804h-219.708812v78.467433h219.708812c90.237548 0 160.858238-70.62069 160.858238-160.858237 0-86.314176-70.62069-160.858238-160.858238-160.858238z" fill="#5060B5" p-id="31547"></path><path d="M674.819923 647.356322c94.16092 0 188.321839 86.314176 243.249043 145.164751-51.003831 54.927203-145.164751 149.088123-243.249043 149.088122-94.16092 0-192.245211-86.314176-243.249042-149.088122 54.927203-62.773946 149.088123-145.164751 243.249042-145.164751m0-78.467433c-192.245211 0-345.256705 227.555556-345.256705 227.555555s153.011494 227.555556 345.256705 227.555556 345.256705-227.555556 345.256705-227.555556-153.011494-227.555556-345.256705-227.555555z" fill="#FC8739" p-id="31548"></path></svg>